<svg xmlns="http://www.w3.org/2000/svg" width="34" height="34" viewBox="0 0 34 34">
  <metadata><?xpacket begin="﻿" id="W5M0MpCehiHzreSzNTczkc9d"?>
<x:xmpmeta xmlns:x="adobe:ns:meta/" x:xmptk="Adobe XMP Core 5.6-c138 79.159824, 2016/09/14-01:09:01        ">
   <rdf:RDF xmlns:rdf="http://www.w3.org/1999/02/22-rdf-syntax-ns#">
      <rdf:Description rdf:about=""/>
   </rdf:RDF>
</x:xmpmeta>
                                                                                                    
                                                                                                    
                                                                                                    
                                                                                                    
                                                                                                    
                                                                                                    
                                                                                                    
                                                                                                    
                                                                                                    
                                                                                                    
                                                                                                    
                                                                                                    
                                                                                                    
                                                                                                    
                                                                                                    
                                                                                                    
                                                                                                    
                                                                                                    
                                                                                                    
                                                                                                    
                           
<?xpacket end="w"?></metadata>
<defs>
    <style>
      .cls-1 {
        fill: #fff;
        fill-rule: evenodd;
      }
    </style>
  </defs>
  <path id="Forma_1" data-name="Forma 1" class="cls-1" d="M817.617,6643H802.382a9.393,9.393,0,0,0-9.382,9.38v15.24a9.393,9.393,0,0,0,9.382,9.38h15.235a9.393,9.393,0,0,0,9.383-9.38v-15.24A9.393,9.393,0,0,0,817.617,6643Zm6.366,24.62a6.368,6.368,0,0,1-6.366,6.36H802.382a6.368,6.368,0,0,1-6.366-6.36v-15.24a6.368,6.368,0,0,1,6.366-6.36h15.235a6.368,6.368,0,0,1,6.366,6.36v15.24h0ZM810,6651.24a8.76,8.76,0,1,0,8.761,8.76A8.77,8.77,0,0,0,810,6651.24Zm0,14.5a5.74,5.74,0,1,1,5.744-5.74A5.745,5.745,0,0,1,810,6665.74Zm9.128-17.06a2.214,2.214,0,1,0,1.565.65A2.231,2.231,0,0,0,819.128,6648.68Z" transform="translate(-793 -6643)"/>
</svg>
