<svg xmlns="http://www.w3.org/2000/svg" width="35" height="28" viewBox="0 0 35 28">
  <metadata><?xpacket begin="﻿" id="W5M0MpCehiHzreSzNTczkc9d"?>
<x:xmpmeta xmlns:x="adobe:ns:meta/" x:xmptk="Adobe XMP Core 5.6-c138 79.159824, 2016/09/14-01:09:01        ">
   <rdf:RDF xmlns:rdf="http://www.w3.org/1999/02/22-rdf-syntax-ns#">
      <rdf:Description rdf:about=""/>
   </rdf:RDF>
</x:xmpmeta>
                                                                                                    
                                                                                                    
                                                                                                    
                                                                                                    
                                                                                                    
                                                                                                    
                                                                                                    
                                                                                                    
                                                                                                    
                                                                                                    
                                                                                                    
                                                                                                    
                                                                                                    
                                                                                                    
                                                                                                    
                                                                                                    
                                                                                                    
                                                                                                    
                                                                                                    
                                                                                                    
                           
<?xpacket end="w"?></metadata>
<defs>
    <style>
      .cls-1 {
        fill: #fff;
        fill-rule: evenodd;
      }
    </style>
  </defs>
  <path class="cls-1" d="M905,5594.21a2.051,2.051,0,0,0-.58-1.44l-0.779-.8a1.936,1.936,0,0,0-2.8,0l-3.668,3.78v-4.03a0.707,0.707,0,0,0-.7-0.72H870.694a0.707,0.707,0,0,0-.7.72v26.56a0.707,0.707,0,0,0,.7.72H896.47a0.707,0.707,0,0,0,.7-0.72v-15.15l7.249-7.47A2.075,2.075,0,0,0,905,5594.21Zm-9.223,23.35H871.391v-25.12h24.382v4.74l-12.765,13.16a0.7,0.7,0,0,0-.168.28l-1.3,4.01a0.723,0.723,0,0,0,.169.73,0.674,0.674,0,0,0,.493.21,0.822,0.822,0,0,0,.22-0.03l3.893-1.34a0.728,0.728,0,0,0,.272-0.17l9.184-9.47v13Zm-10.054-4.67-2.413.83,0.8-2.49,14.8-15.25,1.608,1.65Zm17.711-18.25-1.921,1.98-0.8-.83-0.8-.83,1.92-1.98a0.568,0.568,0,0,1,.83,0l0.779,0.8h0a0.628,0.628,0,0,1,.172.43A0.611,0.611,0,0,1,903.43,5594.64Zm-11.687.85h-0.665a0.72,0.72,0,0,0,0,1.44h0.665A0.72,0.72,0,0,0,891.743,5595.49Zm-3.693,0h-12.7a0.72,0.72,0,0,0,0,1.44h12.7A0.72,0.72,0,0,0,888.05,5595.49Zm-0.665,4.19H875.347a0.715,0.715,0,0,0,0,1.43h12.038A0.715,0.715,0,0,0,887.385,5599.68Zm-4.357,4.18h-7.681a0.72,0.72,0,0,0,0,1.44h7.681A0.72,0.72,0,0,0,883.028,5603.86Zm-3.324,4.11h-4.357a0.72,0.72,0,0,0,0,1.44H879.7A0.72,0.72,0,0,0,879.7,5607.97Z" transform="translate(-870 -5591)"/>
</svg>
