<svg xmlns="http://www.w3.org/2000/svg" width="69" height="69" viewBox="0 0 69 69">
  <metadata><?xpacket begin="﻿" id="W5M0MpCehiHzreSzNTczkc9d"?>
<x:xmpmeta xmlns:x="adobe:ns:meta/" x:xmptk="Adobe XMP Core 5.6-c138 79.159824, 2016/09/14-01:09:01        ">
   <rdf:RDF xmlns:rdf="http://www.w3.org/1999/02/22-rdf-syntax-ns#">
      <rdf:Description rdf:about=""/>
   </rdf:RDF>
</x:xmpmeta>
                                                                                                    
                                                                                                    
                                                                                                    
                                                                                                    
                                                                                                    
                                                                                                    
                                                                                                    
                                                                                                    
                                                                                                    
                                                                                                    
                                                                                                    
                                                                                                    
                                                                                                    
                                                                                                    
                                                                                                    
                                                                                                    
                                                                                                    
                                                                                                    
                                                                                                    
                                                                                                    
                           
<?xpacket end="w"?></metadata>
<defs>
    <style>
      .cls-1 {
        fill: #56e03f;
        fill-rule: evenodd;
      }
    </style>
  </defs>
  <path id="Forma_1" data-name="Forma 1" class="cls-1" d="M984.9,10954.1A34.511,34.511,0,1,0,995,10978.5,34.337,34.337,0,0,0,984.9,10954.1ZM960.5,11009a30.5,30.5,0,1,1,30.457-30.5A30.524,30.524,0,0,1,960.5,11009Zm16.482-41.6a2,2,0,0,0-2.858,0l-17.851,17.9-9.4-9.4a2,2,0,0,0-2.859,0,1.951,1.951,0,0,0,0,2.8l10.826,10.9a2,2,0,0,0,2.859,0l19.28-19.3A2.071,2.071,0,0,0,976.982,10967.4Z" transform="translate(-926 -10944)"/>
</svg>
