<svg xmlns="http://www.w3.org/2000/svg" width="17" height="17" viewBox="0 0 17 17">
  <metadata><?xpacket begin="﻿" id="W5M0MpCehiHzreSzNTczkc9d"?>
<x:xmpmeta xmlns:x="adobe:ns:meta/" x:xmptk="Adobe XMP Core 5.6-c138 79.159824, 2016/09/14-01:09:01        ">
   <rdf:RDF xmlns:rdf="http://www.w3.org/1999/02/22-rdf-syntax-ns#">
      <rdf:Description rdf:about=""/>
   </rdf:RDF>
</x:xmpmeta>
                                                                                                    
                                                                                                    
                                                                                                    
                                                                                                    
                                                                                                    
                                                                                                    
                                                                                                    
                                                                                                    
                                                                                                    
                                                                                                    
                                                                                                    
                                                                                                    
                                                                                                    
                                                                                                    
                                                                                                    
                                                                                                    
                                                                                                    
                                                                                                    
                                                                                                    
                                                                                                    
                           
<?xpacket end="w"?></metadata>
<defs>
    <style>
      .cls-1 {
        fill: #4fce3a;
        fill-rule: evenodd;
      }
    </style>
  </defs>
  <path id="Forma_1_copy_3" data-name="Forma 1 copy 3" class="cls-1" d="M1017.5,5293.71a0.5,0.5,0,0,1,.5.5,0.5,0.5,0,0,1-1,0A0.5,0.5,0,0,1,1017.5,5293.71Zm0,15.29a8.5,8.5,0,1,1,8.5-8.54A8.519,8.519,0,0,1,1017.5,5309Zm0-15.97a7.43,7.43,0,1,0,7.43,7.43A7.428,7.428,0,0,0,1017.5,5293.03Zm0,13.22a0.5,0.5,0,0,1,.5.5,0.5,0.5,0,0,1-1,0A0.5,0.5,0,0,1,1017.5,5306.25Zm6.25-6.29a0.5,0.5,0,0,1,.5.5,0.5,0.5,0,0,1-1,0A0.5,0.5,0,0,1,1023.75,5299.96Zm-12.5,0a0.5,0.5,0,0,1,.5.5,0.5,0.5,0,0,1-1,0A0.5,0.5,0,0,1,1011.25,5299.96Zm6.07,1.61a0.568,0.568,0,0,1-.39-0.14l-1.72-1.79a0.53,0.53,0,0,1,.75-0.75l1.36,1.36,3.14-3.14a0.509,0.509,0,0,1,.75,0,0.5,0.5,0,0,1,0,.74l-3.5,3.54A0.549,0.549,0,0,1,1017.32,5301.57Z" transform="translate(-1009 -5292)"/>
</svg>
