<svg xmlns="http://www.w3.org/2000/svg" width="25" height="25.094" viewBox="0 0 25 25.094">
  <metadata><?xpacket begin="﻿" id="W5M0MpCehiHzreSzNTczkc9d"?>
<x:xmpmeta xmlns:x="adobe:ns:meta/" x:xmptk="Adobe XMP Core 5.6-c138 79.159824, 2016/09/14-01:09:01        ">
   <rdf:RDF xmlns:rdf="http://www.w3.org/1999/02/22-rdf-syntax-ns#">
      <rdf:Description rdf:about=""/>
   </rdf:RDF>
</x:xmpmeta>
                                                                                                    
                                                                                                    
                                                                                                    
                                                                                                    
                                                                                                    
                                                                                                    
                                                                                                    
                                                                                                    
                                                                                                    
                                                                                                    
                                                                                                    
                                                                                                    
                                                                                                    
                                                                                                    
                                                                                                    
                                                                                                    
                                                                                                    
                                                                                                    
                                                                                                    
                                                                                                    
                           
<?xpacket end="w"?></metadata>
<defs>
    <style>
      .cls-1 {
        fill: #fff;
        fill-rule: evenodd;
      }
    </style>
  </defs>
  <path id="Forma_1_копия" data-name="Forma 1 копия" class="cls-1" d="M1032.5,34.721A12.552,12.552,0,1,0,1045,47.274,12.528,12.528,0,0,0,1032.5,34.721Zm6.6,18.315-1,1.006a1.825,1.825,0,0,1-.72.291,11.833,11.833,0,0,1-11.91-11.99,1.828,1.828,0,0,1,.29-0.69l1-1.005a1.666,1.666,0,0,1,1.56-.371l0.21,0.07a1.981,1.981,0,0,1,1.15,1.213l0.5,1.856a1.829,1.829,0,0,1-.41,1.589l-0.67.671a7.116,7.116,0,0,0,4.99,5.013l0.67-.671a1.8,1.8,0,0,1,1.58-.416l1.85,0.507a2,2,0,0,1,1.21,1.146l0.07,0.215A1.712,1.712,0,0,1,1039.1,53.036Z" transform="translate(-1020 -34.719)"/>
</svg>
