<?xml version="1.0" encoding="utf-8"?>
<!-- Generator: Adobe Illustrator 22.0.0, SVG Export Plug-In . SVG Version: 6.00 Build 0)  -->
<svg version="1.1" id="Слой_1" xmlns="http://www.w3.org/2000/svg" xmlns:xlink="http://www.w3.org/1999/xlink" x="0px" y="0px"
	  xml:space="preserve">
<style type="text/css">
	.st0{fill-rule:evenodd;clip-rule:evenodd;fill:#EA600B;}
	.st1{fill:#2F2F3A;}
	.st2{fill:#62B338;}
	.st3{fill-rule:evenodd;clip-rule:evenodd;fill:#62B338;}
</style>
<g>
	<path class="st0" d="M142.3,412.4c0.2-17.5-13.2-32.4-30.8-41c12.5,8.8,21.1,21.8,20.3,36.7c-0.1,27.7-26.4,51.1-59.3,50.6
		c-2.4,0-4.7-0.1-6.9-0.3c5.2,1.7,11.2,2.6,17.9,2.5C116.3,461.3,143.4,440.1,142.3,412.4z M56.5,376.7c-1-0.5-1.8-0.7-2.2-0.6
		c0.5,0.1,1.2,0.4,2.1,0.8c-1.1,2-1.8,3.7-1.7,4.5c0.2-0.9,1-2.5,2-4.3c0.7,0.3,1.4,0.8,2.2,1.2c0.3,0.2,0.5,0.3,0.7,0.5
		c-0.9,1.7-1.4,3.1-1.4,3.7c0.2-0.8,0.8-2,1.6-3.5c1.3,0.8,2.3,1.7,2.9,2.2c-0.3-0.5-1.3-1.5-2.7-2.4c0.4-0.7,0.8-1.4,1.3-2.1
		c1.8,1.2,3.3,2.3,4,3.1c-0.4-0.8-1.9-2.1-3.9-3.4c0.5-0.7,1-1.4,1.4-2c1.9,1.2,3.3,2.4,4.1,3.2c-0.4-0.8-1.9-2.1-3.9-3.4
		c0.8-1.1,1.6-1.9,2.1-2.4c-0.6,0.3-1.4,1.1-2.4,2.3c-0.3-0.2-0.5-0.4-0.8-0.5c-0.7-0.4-1.4-0.8-2.1-1.2c1.2-1.6,2.3-2.8,3-3.5
		c-0.8,0.4-2,1.6-3.4,3.4c-1.7-0.8-3.1-1.3-3.7-1.2c0.8,0.2,2,0.7,3.5,1.5c-0.5,0.6-1,1.3-1.4,2c-1.7-0.9-3.1-1.3-3.7-1.3
		c0.8,0.2,2.1,0.7,3.6,1.5C57.3,375.2,56.9,376,56.5,376.7z M58.3,374.4c0.5-0.7,1-1.4,1.4-2c0.7,0.4,1.4,0.8,2.2,1.3
		c0.2,0.1,0.5,0.3,0.7,0.4c-0.5,0.6-1,1.3-1.5,2c-0.3-0.2-0.6-0.4-0.9-0.5C59.7,375.1,59,374.7,58.3,374.4L58.3,374.4z M58.2,374.6
		c0.7,0.4,1.4,0.8,2.1,1.2c0.3,0.2,0.5,0.3,0.8,0.5l0,0c-0.5,0.7-0.9,1.4-1.3,2.1c-0.3-0.2-0.5-0.3-0.8-0.5
		c-0.7-0.5-1.5-0.8-2.1-1.2C57.2,376.1,57.7,375.4,58.2,374.6z M57.3,387.2c0.6-0.4,1.6-0.7,2.3-1l0.1,0c0.2-0.1,0.3-0.1,0.5-0.2
		c0.2-0.1,0.3-0.1,0.4-0.2c0.2-0.1,0.4-0.2,0.6-0.2c0.3-0.1,0.5-0.2,0.8-0.3c0,0,0.1,0,0.1-0.1c2.1-0.8,3.9-2,5.3-3.4
		c0.1-0.1,0.2-0.2,0.3-0.3c0.8-0.8,1.4-1.7,2-2.7c0.7-1.1,1.1-2.3,1.4-3.5c0-0.1,0.1-0.2,0.1-0.4c0.3-1.3,0.3-2.7,0-4c0,0,0,0,0,0
		c0-0.1-0.1-0.2-0.1-0.3c-0.2-0.8-0.5-1.6-0.9-2.3c-0.1-0.2-0.3-0.5-0.4-0.7c-0.7-1-1.7-1.9-2.8-2.5c-1.1-0.7-2.3-1.1-3.5-1.2
		c-0.3,0-0.5,0-0.8-0.1c-0.8,0-1.6,0.1-2.4,0.3c-0.1,0-0.2,0.1-0.3,0.1c0,0,0,0,0,0c-1.3,0.4-2.4,1-3.5,1.9
		c-0.1,0.1-0.2,0.2-0.3,0.2c-0.9,0.8-1.7,1.8-2.3,2.9c-0.6,1-1,2-1.3,3c0,0.1-0.1,0.2-0.1,0.3c-0.6,2-0.7,4.1-0.4,6.3
		c0,0,0.2,1.1,0.3,1.5c0,0.1,0,0.1,0,0.2c0,0.1,0,0.3,0.1,0.5c0,0.2,0,0.3,0.1,0.5l0,0.1c0.1,0.7,0.3,1.7,0.3,2.4
		c-0.1,1.6-0.3,3.5-1.8,6l-0.9,1.3l-1.6,1.8l-5.5,9.5l3.1,1.8l5.5-9.5l0.8-2.3l0.8-1.4C54.4,389.2,55.9,388,57.3,387.2z M54.5,370.1
		c1.3-2.3,3.3-4,5.5-4.7c2.2-0.7,4.4-0.4,6.3,0.7c1.9,1.1,3.3,3,3.7,5.2c0.5,2.3,0,4.8-1.4,7.1c-1.6,2.7-3.9,4.7-6.9,5.9
		c-0.1,0-0.3,0.1-0.3,0.1l-2.1,0.8l-0.1,0l-0.2,0.1c-1.2-0.1-2.3-0.4-3.4-1.1c-1-0.6-1.8-1.3-2.4-2.1l-0.1-0.4l0-0.1l-0.2-1.7
		c-0.1-0.3-0.1-0.6-0.2-0.9C52.4,375.8,53,372.8,54.5,370.1z M52.2,391.2l-0.8,1.4l-0.7-0.4l0.8-1.4c1.6-2.7,1.8-4.7,1.9-6.4l0-0.1
		c0.5,0.4,1,0.8,1.6,1.1c0.6,0.4,1.3,0.7,2,0.9l0,0c0,0,0,0-0.1,0C55.3,387.3,53.7,388.6,52.2,391.2z M106.9,372.5
		c-5.7,18.3-35.1,61-54,26.7C71.6,456.7,108,394.1,106.9,372.5z M66.7,394.5c0,5.5,4.4,10,9.9,10c5.5,0,9.9-4.5,9.9-10
		c0-5.5-4.4-10-9.9-10C71.2,384.5,66.7,389,66.7,394.5z"/>
</g>
<path class="st1" d="M182.2,378.9h-28.7v6.5h10.5v28.3h7.7v-28.3h10.5V378.9z"/>
<path class="st1" d="M212.4,378.9h-26.2v34.9h26.5v-6.4h-18.9v-8.6h17.1v-6h-17.1v-7.6h18.6V378.9z"/>
<path class="st1" d="M218,413.8h7.4v-23.4l14.5,23.4h7.6v-34.9h-7.4v23.3l-14.4-23.3H218V413.8z"/>
<path class="st1" d="M254.3,413.8h7.4v-23.4l14.5,23.4h7.6v-34.9h-7.4v23.3l-14.4-23.3h-7.8V413.8z"/>
<path class="st1" d="M298.3,378.9h-7.7v34.9h7.7V378.9z"/>
<path class="st1" d="M330.9,389.3c-0.1-7.8-6.1-11.1-13.4-11.1c-8.1,0-13.4,4.1-13.4,10.4c0,7.1,5.4,8.5,11.1,10.1
	c7.2,2.1,9.6,2.5,9.6,5.3c0,2.9-2.5,4.7-6.5,4.7c-4.7,0-7.7-1.9-7.9-6.6h-7.6c0.1,7.9,5.7,12.4,15.1,12.4c7.1,0,14.4-3,14.4-11.3
	c0-5.8-4-8.2-10.2-10c-7-2-10.7-2.2-10.7-5.2c0-2.5,2.1-4,5.6-4c4.1,0,6.3,1.8,6.6,5.2H330.9z"/>
<path class="st1" d="M362.8,378.9h-28.7v6.5h10.5v28.3h7.7v-28.3h10.5V378.9z"/>
<path class="st1" d="M393,378.9h-26.2v34.9h26.5v-6.4h-18.9v-8.6h17.1v-6h-17.1v-7.6H393V378.9z"/>
<path class="st1" d="M415.9,378.9H408l-13.3,34.9h7.8l2.8-7.8h13l2.7,7.8h8L415.9,378.9z M416.6,400.4h-9.3l4.7-13L416.6,400.4z"/>
<path class="st1" d="M432.1,413.8h7.3v-24.5l8.7,24.5h5.9l8.6-24.8v24.8h7.2v-34.9h-10.7l-7.9,23.9l-8.1-23.9h-10.9V413.8z"/>
<path class="st1" d="M483.9,406.2h-7.7v7.6h7.7V406.2z"/>
<path class="st1" d="M490.5,378.9v34.9h7.6v-13.7h6.8c5,0,6.5,1.7,7,6.5c0.2,1.9,0.2,5.4,1.1,7.1h7.9c-1.4-1.3-1.5-6.1-1.7-8.3
	c-0.3-3.4-1.3-7.3-5.1-8.1c3.5-1.3,5.5-4.5,5.5-8.6c0-7-5.3-9.9-11.8-9.9H490.5z M498.1,385h7.6c3.2,0,6.4,0.7,6.4,4.7
	c0,4.3-3.2,4.9-6.8,4.9h-7.3V385z"/>
<path class="st1" d="M555.3,378.9h-7.6v20.9c0,5.1-1.2,8.4-7.1,8.4c-6,0-7.5-3-7.5-8.4v-20.9h-7.6v20.9c0,9.9,4.7,14.7,15,14.7
	c10.2,0,14.8-4.7,14.8-14.6V378.9z"/>
<path class="st2" d="M164.2,442.6H190v-20.3H188V441h-9.9v-18.7h-1.9V441h-9.9v-18.7h-1.9V442.6z"/>
<path class="st2" d="M199.8,433.7l6.3-5.7h-2.4l-8.2,7.5V428h-1.8v14.7h1.8v-5l3-2.8l5.7,7.7h2.3L199.8,433.7z"/>
<path class="st2" d="M214.3,427.5c-4.3,0-7,3.1-7,7.8c0,4.7,2.7,7.8,7,7.8c4.3,0,6.9-3,6.9-7.7C221.2,430.6,218.5,427.5,214.3,427.5
	z M214.2,429c3.1,0,5.1,2.5,5.1,6.3c0,3.8-2,6.3-5.1,6.3c-3.2,0-5.2-2.4-5.2-6.3C209.1,431.5,211.1,429,214.2,429z"/>
<path class="st2" d="M235.2,442.6V428h-9.5l-0.3,8.8c-0.1,3.4-0.8,4.7-2,4.7c-0.4,0-1.2-0.1-1.6-0.3v1.5c0.4,0.2,1,0.3,1.6,0.3
	c2.4,0,3.7-1.7,3.8-6.1l0.3-7.4h6v13.2H235.2z"/>
<path class="st2" d="M251.5,441.2c-0.3,0.1-0.5,0.1-0.7,0.1c-1,0-1-0.6-1-1.5v-8c0-2.8-2.1-4.2-5.4-4.2c-3.6,0-5.8,1.8-5.9,4.9h1.7
	c0.2-2.4,1.5-3.5,4-3.5c2.3,0,3.8,0.7,3.8,3.2c0,0.7-0.1,1.1-0.5,1.4c-0.7,0.5-2,0.5-4.3,0.8c-3.6,0.4-5.5,1.9-5.5,4.5
	c0,2.6,1.8,4.1,4.8,4.1c2.5,0,4.3-1,5.5-2.9c0,1.3,0.2,2.7,1.9,2.7c0.5,0,0.9-0.1,1.4-0.2V441.2z M248,434.6v2.4
	c0,2.8-2.3,4.5-5,4.5c-2.1,0-3.4-1.1-3.4-2.8c0-2.4,2.5-2.8,4.4-3.1C246,435.4,247.5,435.3,248,434.6z"/>
<path class="st2" d="M272.4,429.5V428h-12.7v1.5h5.5v13.2h1.8v-13.2H272.4z"/>
<path class="st2" d="M285.8,437.8H284c-0.6,2.5-2.1,3.9-4.5,3.9c-3.5,0-5-2.9-5-5.9h11.4v-0.5c0-4.1-2.1-7.7-6.5-7.7
	c-3.9,0-6.7,3.3-6.7,7.9c0,4.7,2.7,7.7,6.7,7.7C282.9,443.1,285.1,441.1,285.8,437.8z M284.1,434.3h-9.5c0.3-2.7,1.6-5.2,4.8-5.2
	C282.1,429,283.9,431,284.1,434.3z"/>
<path class="st2" d="M300.3,442.6V428h-1.8v6.3h-8.4V428h-1.8v14.7h1.8v-6.9h8.4v6.9H300.3z"/>
<path class="st2" d="M315.7,442.6V428h-1.8v6.3h-8.4V428h-1.8v14.7h1.8v-6.9h8.4v6.9H315.7z"/>
<path class="st2" d="M331,442.6V428h-2.2l-7.9,12.6V428H319v14.7h2.2l7.9-12.6v12.6H331z"/>
<path class="st2" d="M346.7,437.4h-1.8c-0.4,2.7-2,4.2-4.5,4.2c-3,0-4.9-2.5-4.9-6.3c0-3.8,1.9-6.3,5-6.3c2.3,0,3.7,1.3,4.2,3.6h1.8
	c-0.4-3.2-2.6-5.1-6-5.1c-4.1,0-6.9,3.1-6.9,7.9c0,4.6,2.7,7.6,6.8,7.6C344.1,443.1,346.2,440.7,346.7,437.4z"/>
<path class="st2" d="M362.1,441.2c-0.3,0.1-0.5,0.1-0.7,0.1c-1,0-1-0.6-1-1.5v-8c0-2.8-2.1-4.2-5.4-4.2c-3.6,0-5.8,1.8-5.9,4.9h1.7
	c0.2-2.4,1.5-3.5,4-3.5c2.3,0,3.8,0.7,3.8,3.2c0,0.7-0.1,1.1-0.5,1.4c-0.7,0.5-2,0.5-4.3,0.8c-3.6,0.4-5.5,1.9-5.5,4.5
	c0,2.6,1.8,4.1,4.8,4.1c2.5,0,4.3-1,5.5-2.9c0,1.3,0.2,2.7,1.9,2.7c0.5,0,0.9-0.1,1.4-0.2V441.2z M358.7,434.6v2.4
	c0,2.8-2.3,4.5-5,4.5c-2.1,0-3.4-1.1-3.4-2.8c0-2.4,2.5-2.8,4.4-3.1C356.7,435.4,358.1,435.3,358.7,434.6z"/>
<path class="st3" d="M120.1,358.5c-0.5-1.6-1.5-3.1-3-4.1c-1.5-1-3.3-1.4-4.9-1.2c0.2,1.8-0.4,4-1.6,5.8c-1.3,1.9-3,3.2-4.8,3.8
	c0.5,1.6,1.5,3.1,3,4.1c1.5,1,3.3,1.4,4.9,1.2c-0.2-1.8,0.4-3.9,1.6-5.8C116.6,360.4,118.3,359.1,120.1,358.5z"/>
<path class="st3" d="M120.3,359.4c-1.5,0.5-3.1,1.7-4.2,3.4c-1.1,1.7-1.6,3.5-1.5,5.2c1.8-0.4,3.4-1.5,4.6-3.1
	C120.3,363.2,120.6,361.2,120.3,359.4z"/>
<path class="st3" d="M105.5,361.9c1.5-0.5,3.1-1.7,4.2-3.4c1.1-1.7,1.6-3.5,1.5-5.2c-1.8,0.4-3.4,1.5-4.5,3.1
	C105.6,358.1,105.2,360.1,105.5,361.9z"/>
<path class="st3" d="M105.5,435.9c0.9-2.1,1.7-9,1.6-13.4c-0.1-6.4-4.4-9.2-9.2-8c-28.9,7.4-56,62.6-58.5,76.6
	C53.1,471,84.9,417.8,105.5,435.9z"/>
</svg>
