<svg xmlns="http://www.w3.org/2000/svg" xmlns:xlink="http://www.w3.org/1999/xlink" preserveAspectRatio="xMidYMid" width="25" height="25.094" viewBox="0 0 25 25.094">
  <defs>
    <style>
      .cls-1 {
        fill: #ff7219;
        fill-rule: evenodd;
      }
    </style>
  </defs>
  <path d="M12.498,0.003 C5.596,0.003 -0.000,5.622 -0.000,12.555 C-0.000,19.487 5.596,25.107 12.498,25.107 C19.401,25.107 24.997,19.487 24.997,12.555 C24.997,5.622 19.401,0.003 12.498,0.003 ZM19.099,18.318 L18.098,19.323 C17.919,19.503 17.396,19.614 17.379,19.614 C14.213,19.641 11.165,18.393 8.925,16.144 C6.679,13.886 5.434,10.814 5.468,7.624 C5.468,7.623 5.582,7.112 5.761,6.934 L6.762,5.929 C7.128,5.560 7.831,5.393 8.324,5.558 L8.535,5.629 C9.026,5.794 9.542,6.340 9.677,6.842 L10.181,8.698 C10.317,9.202 10.134,9.919 9.767,10.287 L9.099,10.958 C9.755,13.397 11.661,15.311 14.090,15.971 L14.758,15.301 C15.126,14.931 15.840,14.747 16.340,14.884 L18.188,15.391 C18.688,15.529 19.231,16.044 19.396,16.537 L19.466,16.752 C19.630,17.245 19.465,17.951 19.099,18.318 Z" class="cls-1"/>
</svg>
